<?xml version="1.0" encoding="UTF-8"?>
<!DOCTYPE svg PUBLIC "-//W3C//DTD SVG 1.1//EN" "http://www.w3.org/Graphics/SVG/1.1/DTD/svg11.dtd">
<svg version="1.1" id="owon_1" xmlns="http://www.w3.org/2000/svg" xmlns:xlink="http://www.w3.org/1999/xlink" x="0px" y="0px" width="474" height="120" viewBox="0 0 474 120"  enable-background="new 0 0 474 120" xml:space="preserve">
    <path d="M 399.634918 110 L 379 110 L 379 50.608467 C 379.105835 28.134918 398.021179 10 421.394165 10 C 444.767181 10 463.682526 28.134918 463.788361 50.608467 L 463.788361 110 L 443.153442 110 L 443.153442 50.608467 C 443.153442 39.193123 433.431213 29.973541 421.394165 29.973541 C 409.357147 29.973541 399.634918 39.193123 399.634918 50.608467 Z"/>
    <path d="M 317.587311 10 C 346.09259 10.03968 369.134918 32.367722 369.174591 60 C 369.134918 87.632278 346.09259 109.96032 317.587311 110 C 289.082001 109.96032 266.039703 87.632278 266 60 C 266.039703 32.367722 289.082001 10.03968 317.587311 10 Z M 317.587311 29.576721 C 300.246033 29.616402 286.238098 43.201057 286.238098 60 C 286.238098 76.798943 300.246033 90.383598 317.587311 90.423279 C 334.928589 90.383598 348.936493 76.798943 348.936493 60 C 348.936493 43.201057 334.928589 29.616402 317.587311 29.576721 Z"/>
    <path d="M 161.670288 110 C 140.313431 110 123.040703 93.989143 123 74.179108 L 123 10 L 144.166885 10 L 144.166885 74.179108 C 144.207596 82.740837 152.023071 89.647217 161.670288 89.647217 C 171.317505 89.647217 179.132965 82.740837 179.173676 74.179108 L 179.173676 10 L 200.340576 10 L 200.340576 74.179108 C 200.381287 82.740837 208.196747 89.647217 217.843964 89.647217 C 227.49118 89.647217 235.306641 82.740837 235.347351 74.179108 L 235.347351 10 L 256.514252 10 L 256.514252 74.179108 C 256.473541 93.989143 239.200821 110 217.843964 110 C 206.772049 110 196.799194 105.698776 189.757126 98.805969 C 182.715057 105.698776 172.742188 110 161.670288 110 Z"/>
    <path d="M 61.587303 10 C 90.09259 10.03968 113.134926 32.367722 113.174606 60 C 113.134926 87.632278 90.09259 109.96032 61.587303 110 C 33.082012 109.96032 10.039682 87.632278 10 60 C 10.039682 32.367722 33.082012 10.03968 61.587303 10 Z M 61.587303 29.576721 C 44.246033 29.616402 30.238094 43.201057 30.238094 60 C 30.238094 76.798943 44.246033 90.383598 61.587303 90.423279 C 78.928566 90.383598 92.936508 76.798943 92.936508 60 C 92.936508 43.201057 78.928566 29.616402 61.587303 29.576721 Z"/>
</svg>
