<svg version="1.2" xmlns="http://www.w3.org/2000/svg" viewBox="0 0 3414 894" width="3414" height="894">
	<title>owon_logo-svg</title>
	<style>
		.s0 { fill: #252122 } 
		.s1 { fill: #f79434 } 
		.s2 { fill: #000000 } 
	</style>
    <path id="N" fill-rule="evenodd" class="s0" d="m2860 894h-156v-449c0.8-169.9 143.8-307 320.5-307 176.7 0 319.7 137.1 320.5 307v449h-156v-449c0-86.3-73.5-156-164.5-156-91 0-164.5 69.7-164.5 156z"/>
    <path id="O right" fill-rule="evenodd" class="s0" d="m2264 138c215.5 0.3 389.7 169.1 390 378-0.3 208.9-174.5 377.7-390 378-215.5-0.3-389.7-169.1-390-378 0.3-208.9 174.5-377.7 390-378zm0 148c-131.1 0.3-237 103-237 230 0 127 105.9 229.7 237 230 131.1-0.3 237-103 237-230 0-127-105.9-229.7-237-230z"/>
    <path id="W" fill-rule="evenodd" class="s0" d="m1123 879c-157.4 0-284.7-118-285-264v-473h156v473c0.3 63.1 57.9 114 129 114 71.1 0 128.7-50.9 129-114v-473h156v473c0.3 63.1 57.9 114 129 114 71.1 0 128.7-50.9 129-114v-473h156v473c-0.3 146-127.6 264-285 264-81.6 0-155.1-31.7-207-82.5-51.9 50.8-125.4 82.5-207 82.5z"/>
    <path id="O left" fill-rule="evenodd" class="s1" d="m390 138c215.5 0.3 389.7 169.1 390 378-0.3 208.9-174.5 377.7-390 378-215.5-0.3-389.7-169.1-390-378 0.3-208.9 174.5-377.7 390-378zm0 148c-131.1 0.3-237 103-237 230 0 127 105.9 229.7 237 230 131.1-0.3 237-103 237-230 0-127-105.9-229.7-237-230z"/>
    <g id="Registered trademark">
        <path id="Circle" fill-rule="evenodd" class="s2" d="m3345 138c-38.2 0-69-30.8-69-69 0-38.2 30.8-69 69-69 38.2 0 69 30.8 69 69 0 38.2-30.8 69-69 69zm59.7-69c0-33-26.7-59.7-59.7-59.7-33 0-59.7 26.7-59.7 59.7 0 33 26.7 59.7 59.7 59.7 33 0 59.7-26.7 59.7-59.7z"/>
        <path id="R" fill-rule="evenodd" class="s2" d="m3311.5 110v-84h37.2c7.5 0 13.2 0.7 17.1 2.3 3.9 1.5 7 4.1 9.4 7.9 2.3 3.8 3.5 8 3.5 12.7 0 5.9-1.9 10.9-5.8 15-3.9 4.1-9.8 6.7-17.9 7.8 3 1.5 5.2 2.8 6.7 4.2 3.3 2.9 6.4 6.7 9.2 11.2l14.7 22.8h-14l-11.1-17.5c-3.3-5.1-6-8.9-8.1-11.6-2.1-2.7-4-4.5-5.6-5.6-1.7-1-3.3-1.8-5-2.2-1.3-0.3-3.4-0.4-6.3-0.4h-12.9v37.4zm11.1-46.9h24q7.6 0 11.9-1.6c2.9-1.1 5-2.7 6.5-5.1 1.4-2.3 2.3-4.7 2.3-7.5q0-5.9-4.4-9.7c-2.9-2.5-7.4-3.8-13.6-3.8h-26.6v27.7z"/>
    </g>
</svg>